<mxfile host="app.diagrams.net" agent="Mozilla/5.0 (Windows NT 10.0; Win64; x64) AppleWebKit/537.36 (KHTML, like Gecko) Chrome/136.0.0.0 Safari/537.36" version="27.0.9">
  <diagram name="Page-1" id="2YBvvXClWsGukQMizWep">
    <mxGraphModel dx="1226" dy="667" grid="1" gridSize="10" guides="1" tooltips="1" connect="1" arrows="1" fold="1" page="1" pageScale="1" pageWidth="850" pageHeight="1100" math="0" shadow="0">
      <root>
        <mxCell id="0" />
        <mxCell id="1" parent="0" />
        <mxCell id="3hoJsLYC_WbmtNubMKzN-2" value="Actor" style="shape=umlActor;verticalLabelPosition=bottom;verticalAlign=top;html=1;" parent="1" vertex="1">
          <mxGeometry x="10" y="10" width="30" height="60" as="geometry" />
        </mxCell>
        <mxCell id="3hoJsLYC_WbmtNubMKzN-3" value="" style="endArrow=none;dashed=1;html=1;rounded=0;fontSize=12;startSize=8;endSize=8;curved=1;" parent="1" edge="1">
          <mxGeometry width="50" height="50" relative="1" as="geometry">
            <mxPoint x="20" y="560" as="sourcePoint" />
            <mxPoint x="20" y="90" as="targetPoint" />
          </mxGeometry>
        </mxCell>
        <mxCell id="3hoJsLYC_WbmtNubMKzN-5" value="" style="endArrow=none;dashed=1;html=1;rounded=0;fontSize=12;startSize=8;endSize=8;curved=1;" parent="1" source="3hoJsLYC_WbmtNubMKzN-20" target="3hoJsLYC_WbmtNubMKzN-6" edge="1">
          <mxGeometry width="50" height="50" relative="1" as="geometry">
            <mxPoint x="145" y="560" as="sourcePoint" />
            <mxPoint x="350" y="290" as="targetPoint" />
          </mxGeometry>
        </mxCell>
        <mxCell id="3hoJsLYC_WbmtNubMKzN-6" value="HomeScreen" style="rounded=0;whiteSpace=wrap;html=1;" parent="1" vertex="1">
          <mxGeometry x="100" y="10" width="90" height="20" as="geometry" />
        </mxCell>
        <mxCell id="3hoJsLYC_WbmtNubMKzN-7" value="ReservationInfoClass" style="rounded=0;whiteSpace=wrap;html=1;" parent="1" vertex="1">
          <mxGeometry x="410" y="10" width="120" height="20" as="geometry" />
        </mxCell>
        <mxCell id="3hoJsLYC_WbmtNubMKzN-8" value="" style="endArrow=none;dashed=1;html=1;rounded=0;fontSize=12;startSize=8;endSize=8;curved=1;entryX=0.5;entryY=1;entryDx=0;entryDy=0;" parent="1" source="3hoJsLYC_WbmtNubMKzN-19" target="3hoJsLYC_WbmtNubMKzN-7" edge="1">
          <mxGeometry width="50" height="50" relative="1" as="geometry">
            <mxPoint x="475" y="560" as="sourcePoint" />
            <mxPoint x="560" y="290" as="targetPoint" />
          </mxGeometry>
        </mxCell>
        <mxCell id="3hoJsLYC_WbmtNubMKzN-10" value="ReservInfoScreen" style="rounded=0;whiteSpace=wrap;html=1;" parent="1" vertex="1">
          <mxGeometry x="550" y="10" width="100" height="20" as="geometry" />
        </mxCell>
        <mxCell id="3hoJsLYC_WbmtNubMKzN-11" value="" style="endArrow=none;dashed=1;html=1;rounded=0;fontSize=12;startSize=8;endSize=8;curved=1;" parent="1" source="3hoJsLYC_WbmtNubMKzN-18" edge="1">
          <mxGeometry width="50" height="50" relative="1" as="geometry">
            <mxPoint x="600" y="560" as="sourcePoint" />
            <mxPoint x="599.5" y="30" as="targetPoint" />
          </mxGeometry>
        </mxCell>
        <mxCell id="3hoJsLYC_WbmtNubMKzN-12" value="" style="endArrow=none;dashed=1;html=1;rounded=0;fontSize=12;startSize=8;endSize=8;curved=1;" parent="1" source="3hoJsLYC_WbmtNubMKzN-17" target="3hoJsLYC_WbmtNubMKzN-13" edge="1">
          <mxGeometry width="50" height="50" relative="1" as="geometry">
            <mxPoint x="740" y="560" as="sourcePoint" />
            <mxPoint x="580" y="290" as="targetPoint" />
          </mxGeometry>
        </mxCell>
        <mxCell id="3hoJsLYC_WbmtNubMKzN-13" value="CancelReservScreen" style="rounded=0;whiteSpace=wrap;html=1;" parent="1" vertex="1">
          <mxGeometry x="680" y="10" width="120" height="20" as="geometry" />
        </mxCell>
        <mxCell id="3hoJsLYC_WbmtNubMKzN-14" value="" style="endArrow=none;dashed=1;html=1;rounded=0;fontSize=12;startSize=8;endSize=8;curved=1;" parent="1" target="3hoJsLYC_WbmtNubMKzN-15" edge="1">
          <mxGeometry width="50" height="50" relative="1" as="geometry">
            <mxPoint x="870" y="720" as="sourcePoint" />
            <mxPoint x="580" y="290" as="targetPoint" />
          </mxGeometry>
        </mxCell>
        <mxCell id="3hoJsLYC_WbmtNubMKzN-15" value="DB" style="rounded=0;whiteSpace=wrap;html=1;" parent="1" vertex="1">
          <mxGeometry x="820" y="10" width="100" height="20" as="geometry" />
        </mxCell>
        <mxCell id="3hoJsLYC_WbmtNubMKzN-16" value="" style="html=1;points=[[0,0,0,0,5],[0,1,0,0,-5],[1,0,0,0,5],[1,1,0,0,-5]];perimeter=orthogonalPerimeter;outlineConnect=0;targetShapes=umlLifeline;portConstraint=eastwest;newEdgeStyle={&quot;curved&quot;:0,&quot;rounded&quot;:0};fillColor=#0050ef;fontColor=#ffffff;strokeColor=#001DBC;" parent="1" vertex="1">
          <mxGeometry x="865" y="170" width="10" height="30" as="geometry" />
        </mxCell>
        <mxCell id="3hoJsLYC_WbmtNubMKzN-21" value="" style="endArrow=none;dashed=1;html=1;rounded=0;fontSize=12;startSize=8;endSize=8;curved=1;" parent="1" target="3hoJsLYC_WbmtNubMKzN-20" edge="1">
          <mxGeometry width="50" height="50" relative="1" as="geometry">
            <mxPoint x="145" y="560" as="sourcePoint" />
            <mxPoint x="145" y="30" as="targetPoint" />
          </mxGeometry>
        </mxCell>
        <mxCell id="3hoJsLYC_WbmtNubMKzN-20" value="" style="html=1;points=[[0,0,0,0,5],[0,1,0,0,-5],[1,0,0,0,5],[1,1,0,0,-5]];perimeter=orthogonalPerimeter;outlineConnect=0;targetShapes=umlLifeline;portConstraint=eastwest;newEdgeStyle={&quot;curved&quot;:0,&quot;rounded&quot;:0};fillColor=#0050ef;fontColor=#ffffff;strokeColor=#001DBC;" parent="1" vertex="1">
          <mxGeometry x="140" y="80" width="10" height="80" as="geometry" />
        </mxCell>
        <mxCell id="3hoJsLYC_WbmtNubMKzN-22" value="" style="endArrow=none;dashed=1;html=1;rounded=0;fontSize=12;startSize=8;endSize=8;curved=1;entryX=0.5;entryY=1;entryDx=0;entryDy=0;" parent="1" target="3hoJsLYC_WbmtNubMKzN-19" edge="1">
          <mxGeometry width="50" height="50" relative="1" as="geometry">
            <mxPoint x="475" y="720" as="sourcePoint" />
            <mxPoint x="475" y="30" as="targetPoint" />
          </mxGeometry>
        </mxCell>
        <mxCell id="3hoJsLYC_WbmtNubMKzN-19" value="" style="html=1;points=[[0,0,0,0,5],[0,1,0,0,-5],[1,0,0,0,5],[1,1,0,0,-5]];perimeter=orthogonalPerimeter;outlineConnect=0;targetShapes=umlLifeline;portConstraint=eastwest;newEdgeStyle={&quot;curved&quot;:0,&quot;rounded&quot;:0};fillColor=#0050ef;fontColor=#ffffff;strokeColor=#001DBC;" parent="1" vertex="1">
          <mxGeometry x="470" y="160" width="10" height="450" as="geometry" />
        </mxCell>
        <mxCell id="3hoJsLYC_WbmtNubMKzN-23" value="" style="endArrow=none;dashed=1;html=1;rounded=0;fontSize=12;startSize=8;endSize=8;curved=1;" parent="1" target="3hoJsLYC_WbmtNubMKzN-17" edge="1">
          <mxGeometry width="50" height="50" relative="1" as="geometry">
            <mxPoint x="740" y="720" as="sourcePoint" />
            <mxPoint x="740" y="30" as="targetPoint" />
          </mxGeometry>
        </mxCell>
        <mxCell id="3hoJsLYC_WbmtNubMKzN-17" value="" style="html=1;points=[[0,0,0,0,5],[0,1,0,0,-5],[1,0,0,0,5],[1,1,0,0,-5]];perimeter=orthogonalPerimeter;outlineConnect=0;targetShapes=umlLifeline;portConstraint=eastwest;newEdgeStyle={&quot;curved&quot;:0,&quot;rounded&quot;:0};fillColor=#0050ef;fontColor=#ffffff;strokeColor=#001DBC;" parent="1" vertex="1">
          <mxGeometry x="735" y="310" width="10" height="330" as="geometry" />
        </mxCell>
        <mxCell id="3hoJsLYC_WbmtNubMKzN-24" value="Select Reservation&lt;div&gt;Info&lt;/div&gt;" style="html=1;verticalAlign=bottom;endArrow=block;curved=0;rounded=0;fontSize=12;startSize=8;endSize=8;" parent="1" target="3hoJsLYC_WbmtNubMKzN-20" edge="1">
          <mxGeometry width="80" relative="1" as="geometry">
            <mxPoint x="20" y="130" as="sourcePoint" />
            <mxPoint x="100" y="130" as="targetPoint" />
          </mxGeometry>
        </mxCell>
        <mxCell id="3hoJsLYC_WbmtNubMKzN-25" value="HomeScreen()" style="html=1;verticalAlign=bottom;endArrow=block;curved=0;rounded=0;fontSize=12;startSize=8;endSize=8;" parent="1" edge="1" source="rl1UWaym4wuPpMPKjnlJ-4">
          <mxGeometry width="80" relative="1" as="geometry">
            <mxPoint x="260" y="80" as="sourcePoint" />
            <mxPoint x="150" y="80" as="targetPoint" />
          </mxGeometry>
        </mxCell>
        <mxCell id="3hoJsLYC_WbmtNubMKzN-26" value="go_to_reservation_info()" style="html=1;verticalAlign=bottom;endArrow=block;curved=0;rounded=0;fontSize=12;startSize=8;endSize=8;" parent="1" target="3hoJsLYC_WbmtNubMKzN-19" edge="1">
          <mxGeometry x="-0.5" width="80" relative="1" as="geometry">
            <mxPoint x="150" y="160" as="sourcePoint" />
            <mxPoint x="230" y="160" as="targetPoint" />
            <mxPoint as="offset" />
          </mxGeometry>
        </mxCell>
        <mxCell id="3hoJsLYC_WbmtNubMKzN-27" value="get_last_reservation()" style="html=1;verticalAlign=bottom;endArrow=block;curved=0;rounded=0;fontSize=12;startSize=8;endSize=8;" parent="1" target="3hoJsLYC_WbmtNubMKzN-16" edge="1">
          <mxGeometry x="0.0026" width="80" relative="1" as="geometry">
            <mxPoint x="480" y="170" as="sourcePoint" />
            <mxPoint x="560" y="170" as="targetPoint" />
            <mxPoint as="offset" />
          </mxGeometry>
        </mxCell>
        <mxCell id="3hoJsLYC_WbmtNubMKzN-29" value="return results" style="html=1;verticalAlign=bottom;endArrow=open;dashed=1;endSize=8;curved=0;rounded=0;fontSize=12;exitX=0;exitY=1;exitDx=0;exitDy=-5;exitPerimeter=0;" parent="1" edge="1">
          <mxGeometry relative="1" as="geometry">
            <mxPoint x="865" y="200" as="sourcePoint" />
            <mxPoint x="480" y="200" as="targetPoint" />
          </mxGeometry>
        </mxCell>
        <mxCell id="3hoJsLYC_WbmtNubMKzN-30" value="" style="endArrow=none;dashed=1;html=1;rounded=0;fontSize=12;startSize=8;endSize=8;curved=1;" parent="1" target="3hoJsLYC_WbmtNubMKzN-18" edge="1">
          <mxGeometry width="50" height="50" relative="1" as="geometry">
            <mxPoint x="610" y="720" as="sourcePoint" />
            <mxPoint x="599.5" y="30" as="targetPoint" />
          </mxGeometry>
        </mxCell>
        <mxCell id="3hoJsLYC_WbmtNubMKzN-18" value="" style="html=1;points=[[0,0,0,0,5],[0,1,0,0,-5],[1,0,0,0,5],[1,1,0,0,-5]];perimeter=orthogonalPerimeter;outlineConnect=0;targetShapes=umlLifeline;portConstraint=eastwest;newEdgeStyle={&quot;curved&quot;:0,&quot;rounded&quot;:0};fillColor=#0050ef;fontColor=#ffffff;strokeColor=#001DBC;" parent="1" vertex="1">
          <mxGeometry x="595" y="240" width="10" height="60" as="geometry" />
        </mxCell>
        <mxCell id="3hoJsLYC_WbmtNubMKzN-31" value="&lt;div&gt;_init_()&lt;/div&gt;" style="html=1;verticalAlign=bottom;endArrow=block;curved=0;rounded=0;fontSize=12;startSize=8;endSize=8;" parent="1" edge="1">
          <mxGeometry x="0.0087" width="80" relative="1" as="geometry">
            <mxPoint x="480" y="240" as="sourcePoint" />
            <mxPoint x="595" y="241" as="targetPoint" />
            <mxPoint as="offset" />
          </mxGeometry>
        </mxCell>
        <mxCell id="3hoJsLYC_WbmtNubMKzN-32" value="Selects Reservation" style="html=1;verticalAlign=bottom;endArrow=block;curved=0;rounded=0;fontSize=12;startSize=8;endSize=8;" parent="1" target="3hoJsLYC_WbmtNubMKzN-18" edge="1">
          <mxGeometry x="-0.2696" width="80" relative="1" as="geometry">
            <mxPoint x="20" y="274.5" as="sourcePoint" />
            <mxPoint x="100" y="274.5" as="targetPoint" />
            <mxPoint as="offset" />
          </mxGeometry>
        </mxCell>
        <mxCell id="3hoJsLYC_WbmtNubMKzN-33" value="&lt;span style=&quot;background-color: light-dark(#ffffff, var(--ge-dark-color, #121212)); color: light-dark(rgb(0, 0, 0), rgb(255, 255, 255));&quot;&gt;_init_()&lt;/span&gt;" style="html=1;verticalAlign=bottom;endArrow=block;curved=0;rounded=0;fontSize=12;startSize=8;endSize=8;" parent="1" edge="1">
          <mxGeometry x="0.4694" width="80" relative="1" as="geometry">
            <mxPoint x="477.5" y="310" as="sourcePoint" />
            <mxPoint x="735" y="310" as="targetPoint" />
            <mxPoint as="offset" />
          </mxGeometry>
        </mxCell>
        <mxCell id="3hoJsLYC_WbmtNubMKzN-34" value="Selects Cancel&lt;div&gt;Reservation&lt;/div&gt;" style="html=1;verticalAlign=bottom;endArrow=block;curved=0;rounded=0;fontSize=12;startSize=8;endSize=8;" parent="1" target="3hoJsLYC_WbmtNubMKzN-17" edge="1">
          <mxGeometry x="-0.4126" width="80" relative="1" as="geometry">
            <mxPoint x="20" y="334.5" as="sourcePoint" />
            <mxPoint x="100" y="334.5" as="targetPoint" />
            <mxPoint as="offset" />
          </mxGeometry>
        </mxCell>
        <mxCell id="3hoJsLYC_WbmtNubMKzN-35" value="Checks&amp;nbsp;&lt;span style=&quot;background-color: light-dark(#ffffff, var(--ge-dark-color, #121212)); color: light-dark(rgb(0, 0, 0), rgb(255, 255, 255));&quot;&gt;cancel&lt;/span&gt;" style="html=1;verticalAlign=bottom;endArrow=block;curved=0;rounded=0;fontSize=12;startSize=8;endSize=8;" parent="1" edge="1">
          <mxGeometry x="0.5294" width="80" relative="1" as="geometry">
            <mxPoint x="735" y="370" as="sourcePoint" />
            <mxPoint x="480" y="370" as="targetPoint" />
            <Array as="points">
              <mxPoint x="640" y="370" />
              <mxPoint x="550" y="370" />
            </Array>
            <mxPoint as="offset" />
          </mxGeometry>
        </mxCell>
        <mxCell id="3hoJsLYC_WbmtNubMKzN-36" value="alt" style="shape=umlFrame;whiteSpace=wrap;html=1;pointerEvents=0;" parent="1" vertex="1">
          <mxGeometry x="360" y="400" width="700" height="280" as="geometry" />
        </mxCell>
        <mxCell id="3hoJsLYC_WbmtNubMKzN-37" value="[Check ok]" style="text;html=1;align=center;verticalAlign=middle;whiteSpace=wrap;rounded=0;" parent="1" vertex="1">
          <mxGeometry x="490" y="400" width="60" height="30" as="geometry" />
        </mxCell>
        <mxCell id="3hoJsLYC_WbmtNubMKzN-38" value="cancel_reservation()" style="html=1;verticalAlign=bottom;endArrow=block;curved=0;rounded=0;fontSize=12;startSize=8;endSize=8;" parent="1" edge="1" source="3hoJsLYC_WbmtNubMKzN-19">
          <mxGeometry width="80" relative="1" as="geometry">
            <mxPoint x="740" y="469.5" as="sourcePoint" />
            <mxPoint x="870" y="469.5" as="targetPoint" />
            <mxPoint as="offset" />
          </mxGeometry>
        </mxCell>
        <mxCell id="3hoJsLYC_WbmtNubMKzN-39" value="" style="html=1;points=[[0,0,0,0,5],[0,1,0,0,-5],[1,0,0,0,5],[1,1,0,0,-5]];perimeter=orthogonalPerimeter;outlineConnect=0;targetShapes=umlLifeline;portConstraint=eastwest;newEdgeStyle={&quot;curved&quot;:0,&quot;rounded&quot;:0};fillColor=#0050ef;fontColor=#ffffff;strokeColor=#001DBC;" parent="1" vertex="1">
          <mxGeometry x="865" y="470" width="10" height="20" as="geometry" />
        </mxCell>
        <mxCell id="3hoJsLYC_WbmtNubMKzN-41" value="" style="endArrow=none;dashed=1;html=1;rounded=0;fontSize=12;startSize=8;endSize=8;curved=1;" parent="1" source="3hoJsLYC_WbmtNubMKzN-51" target="3hoJsLYC_WbmtNubMKzN-42" edge="1">
          <mxGeometry width="50" height="50" relative="1" as="geometry">
            <mxPoint x="995" y="730" as="sourcePoint" />
            <mxPoint x="800" y="290" as="targetPoint" />
          </mxGeometry>
        </mxCell>
        <mxCell id="3hoJsLYC_WbmtNubMKzN-42" value="Bank" style="rounded=0;whiteSpace=wrap;html=1;" parent="1" vertex="1">
          <mxGeometry x="940" y="400" width="110" height="20" as="geometry" />
        </mxCell>
        <mxCell id="3hoJsLYC_WbmtNubMKzN-43" value="Connection with bank" style="html=1;verticalAlign=bottom;endArrow=block;curved=0;rounded=0;fontSize=12;startSize=8;endSize=8;" parent="1" edge="1" source="3hoJsLYC_WbmtNubMKzN-19">
          <mxGeometry x="0.28" width="80" relative="1" as="geometry">
            <mxPoint x="740" y="440" as="sourcePoint" />
            <mxPoint x="990" y="440" as="targetPoint" />
            <mxPoint as="offset" />
          </mxGeometry>
        </mxCell>
        <mxCell id="3hoJsLYC_WbmtNubMKzN-44" value="return&lt;div&gt;&#39;Reservation&amp;nbsp;&lt;/div&gt;&lt;div&gt;cancelled&#39;&lt;/div&gt;" style="html=1;verticalAlign=bottom;endArrow=block;curved=0;rounded=0;fontSize=12;startSize=8;endSize=8;" parent="1" edge="1" target="3hoJsLYC_WbmtNubMKzN-17">
          <mxGeometry x="-0.451" y="-50" width="80" relative="1" as="geometry">
            <mxPoint x="480" y="490" as="sourcePoint" />
            <mxPoint x="485" y="525" as="targetPoint" />
            <Array as="points">
              <mxPoint x="530" y="490" />
              <mxPoint x="640" y="490" />
            </Array>
            <mxPoint as="offset" />
          </mxGeometry>
        </mxCell>
        <mxCell id="3hoJsLYC_WbmtNubMKzN-46" value="" style="endArrow=none;dashed=1;html=1;rounded=0;fontSize=12;startSize=8;endSize=8;curved=1;" parent="1" edge="1">
          <mxGeometry width="50" height="50" relative="1" as="geometry">
            <mxPoint x="450" y="570" as="sourcePoint" />
            <mxPoint x="1095" y="570" as="targetPoint" />
            <Array as="points" />
          </mxGeometry>
        </mxCell>
        <mxCell id="3hoJsLYC_WbmtNubMKzN-47" value="[else]" style="text;html=1;align=center;verticalAlign=middle;whiteSpace=wrap;rounded=0;" parent="1" vertex="1">
          <mxGeometry x="490" y="570" width="60" height="30" as="geometry" />
        </mxCell>
        <mxCell id="3hoJsLYC_WbmtNubMKzN-48" style="edgeStyle=none;curved=1;rounded=0;orthogonalLoop=1;jettySize=auto;html=1;exitX=0.5;exitY=1;exitDx=0;exitDy=0;fontSize=12;startSize=8;endSize=8;" parent="1" source="3hoJsLYC_WbmtNubMKzN-47" target="3hoJsLYC_WbmtNubMKzN-47" edge="1">
          <mxGeometry relative="1" as="geometry" />
        </mxCell>
        <mxCell id="3hoJsLYC_WbmtNubMKzN-50" value="return&lt;div&gt;&#39;Reservation&amp;nbsp;&lt;/div&gt;&lt;div&gt;Cancelled&#39;&lt;/div&gt;" style="html=1;verticalAlign=bottom;endArrow=block;curved=0;rounded=0;fontSize=12;startSize=8;endSize=8;" parent="1" target="3hoJsLYC_WbmtNubMKzN-17" edge="1">
          <mxGeometry x="0.2903" y="-40" width="80" relative="1" as="geometry">
            <mxPoint x="740" y="600" as="sourcePoint" />
            <mxPoint x="870" y="600" as="targetPoint" />
            <mxPoint x="40" y="40" as="offset" />
            <Array as="points">
              <mxPoint x="800" y="600" />
              <mxPoint x="800" y="640" />
            </Array>
          </mxGeometry>
        </mxCell>
        <mxCell id="3hoJsLYC_WbmtNubMKzN-54" value="" style="endArrow=none;dashed=1;html=1;rounded=0;fontSize=12;startSize=8;endSize=8;curved=1;" parent="1" target="3hoJsLYC_WbmtNubMKzN-51" edge="1">
          <mxGeometry width="50" height="50" relative="1" as="geometry">
            <mxPoint x="995" y="730" as="sourcePoint" />
            <mxPoint x="995" y="30" as="targetPoint" />
          </mxGeometry>
        </mxCell>
        <mxCell id="3hoJsLYC_WbmtNubMKzN-51" value="" style="html=1;points=[[0,0,0,0,5],[0,1,0,0,-5],[1,0,0,0,5],[1,1,0,0,-5]];perimeter=orthogonalPerimeter;outlineConnect=0;targetShapes=umlLifeline;portConstraint=eastwest;newEdgeStyle={&quot;curved&quot;:0,&quot;rounded&quot;:0};fillColor=#0050ef;fontColor=#ffffff;strokeColor=#001DBC;" parent="1" vertex="1">
          <mxGeometry x="990" y="440" width="10" height="10" as="geometry" />
        </mxCell>
        <mxCell id="rl1UWaym4wuPpMPKjnlJ-1" value="SmartParkAppClass" style="html=1;whiteSpace=wrap;" vertex="1" parent="1">
          <mxGeometry x="250" y="10" width="130" height="20" as="geometry" />
        </mxCell>
        <mxCell id="rl1UWaym4wuPpMPKjnlJ-2" value="" style="endArrow=none;dashed=1;html=1;rounded=0;" edge="1" parent="1" source="rl1UWaym4wuPpMPKjnlJ-4">
          <mxGeometry width="50" height="50" relative="1" as="geometry">
            <mxPoint x="320" y="560" as="sourcePoint" />
            <mxPoint x="320" y="30" as="targetPoint" />
          </mxGeometry>
        </mxCell>
        <mxCell id="rl1UWaym4wuPpMPKjnlJ-3" value="" style="endArrow=none;dashed=1;html=1;rounded=0;" edge="1" parent="1" target="rl1UWaym4wuPpMPKjnlJ-4">
          <mxGeometry width="50" height="50" relative="1" as="geometry">
            <mxPoint x="320" y="560" as="sourcePoint" />
            <mxPoint x="320" y="30" as="targetPoint" />
          </mxGeometry>
        </mxCell>
        <mxCell id="rl1UWaym4wuPpMPKjnlJ-4" value="" style="html=1;points=[[0,0,0,0,5],[0,1,0,0,-5],[1,0,0,0,5],[1,1,0,0,-5]];perimeter=orthogonalPerimeter;outlineConnect=0;targetShapes=umlLifeline;portConstraint=eastwest;newEdgeStyle={&quot;curved&quot;:0,&quot;rounded&quot;:0};fillColor=#0050ef;fontColor=#ffffff;strokeColor=#001DBC;" vertex="1" parent="1">
          <mxGeometry x="315" y="40" width="10" height="40" as="geometry" />
        </mxCell>
        <mxCell id="rl1UWaym4wuPpMPKjnlJ-5" value="return" style="html=1;verticalAlign=bottom;endArrow=open;dashed=1;endSize=8;curved=0;rounded=0;entryX=1;entryY=0.289;entryDx=0;entryDy=0;entryPerimeter=0;" edge="1" parent="1">
          <mxGeometry x="-0.0435" y="1" relative="1" as="geometry">
            <mxPoint x="595" y="298.99999999999994" as="sourcePoint" />
            <mxPoint x="480" y="298.99999999999994" as="targetPoint" />
            <mxPoint as="offset" />
          </mxGeometry>
        </mxCell>
      </root>
    </mxGraphModel>
  </diagram>
</mxfile>
